<svg xmlns="http://www.w3.org/2000/svg" viewBox="0 0 512 512">
  <rect width="512" height="512" fill="#101315"/>
  <g transform="translate(256 256) scale(1) translate(-256 -256)">
    <rect x="52" y="52" width="408" height="408" rx="52" fill="#16191c"/>
    <g opacity="0.5">
      <rect x="96" y="52" width="2" height="408" fill="#1d2226"/><rect x="150" y="52" width="2" height="408" fill="#1d2226"/><rect x="204" y="52" width="2" height="408" fill="#1d2226"/><rect x="258" y="52" width="2" height="408" fill="#1d2226"/><rect x="312" y="52" width="2" height="408" fill="#1d2226"/><rect x="366" y="52" width="2" height="408" fill="#1d2226"/><rect x="420" y="52" width="2" height="408" fill="#1d2226"/>
    </g>
    
      <g transform="translate(150 116) rotate(-7)">
        <path d="M0 0 C 48.6 66, 54 186, 24.3 300
                 C -10.8 216, -40.5 90, 0 0 Z" fill="#c9a97b"/>
      </g>
    
      <g transform="translate(236 96) rotate(-3)">
        <path d="M0 0 C 55.800000000000004 72.6, 62 204.6, 27.900000000000002 330
                 C -12.4 237.6, -46.5 99, 0 0 Z" fill="#e9dfcb"/>
      </g>
    
      <g transform="translate(330 124) rotate(4)">
        <path d="M0 0 C 43.2 62.92, 48 177.32, 21.6 286
                 C -9.600000000000001 205.92, -36 85.8, 0 0 Z" fill="#c9a97b"/>
      </g>
    <rect x="52" y="52" width="408" height="408" rx="52" fill="none" stroke="#33414a" stroke-width="5"/>
  </g>
</svg>